<mxfile host="app.diagrams.net" agent="Mozilla/5.0 (Windows NT 10.0; Win64; x64) AppleWebKit/537.36 (KHTML, like Gecko) Chrome/131.0.0.0 Safari/537.36" version="26.0.6">
  <diagram name="Page-1" id="d2zdWcBFvEhPLDVjw9Od">
    <mxGraphModel dx="880" dy="472" grid="1" gridSize="10" guides="1" tooltips="1" connect="1" arrows="1" fold="1" page="1" pageScale="1" pageWidth="827" pageHeight="1169" math="0" shadow="0">
      <root>
        <mxCell id="0" />
        <mxCell id="1" parent="0" />
        <mxCell id="ALXvMDp6oZ-iTgO_WjpZ-25" value="" style="rounded=0;whiteSpace=wrap;html=1;" vertex="1" parent="1">
          <mxGeometry x="240" y="130" width="310" height="750" as="geometry" />
        </mxCell>
        <mxCell id="ALXvMDp6oZ-iTgO_WjpZ-1" value="" style="ellipse;whiteSpace=wrap;html=1;" vertex="1" parent="1">
          <mxGeometry x="300" y="190" width="180" height="60" as="geometry" />
        </mxCell>
        <mxCell id="ALXvMDp6oZ-iTgO_WjpZ-2" value="" style="ellipse;whiteSpace=wrap;html=1;" vertex="1" parent="1">
          <mxGeometry x="300" y="795" width="180" height="60" as="geometry" />
        </mxCell>
        <mxCell id="ALXvMDp6oZ-iTgO_WjpZ-3" value="Set Reminders" style="ellipse;whiteSpace=wrap;html=1;" vertex="1" parent="1">
          <mxGeometry x="300" y="630" width="180" height="60" as="geometry" />
        </mxCell>
        <mxCell id="ALXvMDp6oZ-iTgO_WjpZ-5" value="" style="ellipse;whiteSpace=wrap;html=1;" vertex="1" parent="1">
          <mxGeometry x="300" y="715" width="180" height="60" as="geometry" />
        </mxCell>
        <mxCell id="ALXvMDp6oZ-iTgO_WjpZ-6" value="" style="ellipse;whiteSpace=wrap;html=1;" vertex="1" parent="1">
          <mxGeometry x="296" y="270" width="180" height="60" as="geometry" />
        </mxCell>
        <mxCell id="ALXvMDp6oZ-iTgO_WjpZ-7" value="" style="ellipse;whiteSpace=wrap;html=1;" vertex="1" parent="1">
          <mxGeometry x="300" y="350" width="180" height="60" as="geometry" />
        </mxCell>
        <mxCell id="ALXvMDp6oZ-iTgO_WjpZ-8" value="" style="ellipse;whiteSpace=wrap;html=1;" vertex="1" parent="1">
          <mxGeometry x="300" y="455" width="180" height="60" as="geometry" />
        </mxCell>
        <mxCell id="ALXvMDp6oZ-iTgO_WjpZ-9" value="" style="ellipse;whiteSpace=wrap;html=1;" vertex="1" parent="1">
          <mxGeometry x="300" y="535" width="180" height="60" as="geometry" />
        </mxCell>
        <mxCell id="ALXvMDp6oZ-iTgO_WjpZ-11" value="Manage users" style="text;html=1;align=center;verticalAlign=middle;whiteSpace=wrap;rounded=0;" vertex="1" parent="1">
          <mxGeometry x="343" y="205" width="86" height="30" as="geometry" />
        </mxCell>
        <mxCell id="ALXvMDp6oZ-iTgO_WjpZ-12" value="Manage content" style="text;html=1;align=center;verticalAlign=middle;whiteSpace=wrap;rounded=0;" vertex="1" parent="1">
          <mxGeometry x="345" y="285" width="90" height="30" as="geometry" />
        </mxCell>
        <mxCell id="ALXvMDp6oZ-iTgO_WjpZ-13" value="Take mental health quiz" style="text;html=1;align=center;verticalAlign=middle;whiteSpace=wrap;rounded=0;" vertex="1" parent="1">
          <mxGeometry x="324" y="365" width="136" height="30" as="geometry" />
        </mxCell>
        <mxCell id="ALXvMDp6oZ-iTgO_WjpZ-14" value="Receive chatbot support" style="text;html=1;align=center;verticalAlign=middle;whiteSpace=wrap;rounded=0;" vertex="1" parent="1">
          <mxGeometry x="322" y="470" width="136" height="30" as="geometry" />
        </mxCell>
        <mxCell id="ALXvMDp6oZ-iTgO_WjpZ-15" value="View selfcare suggestions" style="text;html=1;align=center;verticalAlign=middle;whiteSpace=wrap;rounded=0;" vertex="1" parent="1">
          <mxGeometry x="345" y="550" width="90" height="30" as="geometry" />
        </mxCell>
        <mxCell id="ALXvMDp6oZ-iTgO_WjpZ-17" value="Track Progress" style="text;html=1;align=center;verticalAlign=middle;whiteSpace=wrap;rounded=0;" vertex="1" parent="1">
          <mxGeometry x="354" y="730" width="86" height="30" as="geometry" />
        </mxCell>
        <mxCell id="ALXvMDp6oZ-iTgO_WjpZ-18" value="Therapist suggestions" style="text;html=1;align=center;verticalAlign=middle;whiteSpace=wrap;rounded=0;" vertex="1" parent="1">
          <mxGeometry x="332" y="810" width="126" height="30" as="geometry" />
        </mxCell>
        <mxCell id="ALXvMDp6oZ-iTgO_WjpZ-21" value="extends" style="endArrow=open;endSize=12;dashed=1;html=1;rounded=0;entryX=0.5;entryY=1;entryDx=0;entryDy=0;" edge="1" parent="1" target="ALXvMDp6oZ-iTgO_WjpZ-7">
          <mxGeometry width="160" relative="1" as="geometry">
            <mxPoint x="390" y="450" as="sourcePoint" />
            <mxPoint x="490" y="430" as="targetPoint" />
          </mxGeometry>
        </mxCell>
        <mxCell id="ALXvMDp6oZ-iTgO_WjpZ-24" value="extends" style="endArrow=open;endSize=12;dashed=1;html=1;rounded=0;exitX=0.5;exitY=0;exitDx=0;exitDy=0;entryX=0.5;entryY=1;entryDx=0;entryDy=0;" edge="1" parent="1" source="ALXvMDp6oZ-iTgO_WjpZ-3" target="ALXvMDp6oZ-iTgO_WjpZ-9">
          <mxGeometry width="160" relative="1" as="geometry">
            <mxPoint x="330" y="530" as="sourcePoint" />
            <mxPoint x="490" y="530" as="targetPoint" />
          </mxGeometry>
        </mxCell>
        <mxCell id="ALXvMDp6oZ-iTgO_WjpZ-26" value="Admin" style="shape=umlActor;verticalLabelPosition=bottom;verticalAlign=top;html=1;outlineConnect=0;" vertex="1" parent="1">
          <mxGeometry x="110" y="235" width="30" height="60" as="geometry" />
        </mxCell>
        <mxCell id="ALXvMDp6oZ-iTgO_WjpZ-27" value="" style="endArrow=none;html=1;rounded=0;entryX=0;entryY=0.5;entryDx=0;entryDy=0;" edge="1" parent="1" target="ALXvMDp6oZ-iTgO_WjpZ-1">
          <mxGeometry width="50" height="50" relative="1" as="geometry">
            <mxPoint x="150" y="260" as="sourcePoint" />
            <mxPoint x="440" y="380" as="targetPoint" />
          </mxGeometry>
        </mxCell>
        <mxCell id="ALXvMDp6oZ-iTgO_WjpZ-28" value="" style="endArrow=none;html=1;rounded=0;entryX=0;entryY=0.5;entryDx=0;entryDy=0;" edge="1" parent="1" target="ALXvMDp6oZ-iTgO_WjpZ-6">
          <mxGeometry width="50" height="50" relative="1" as="geometry">
            <mxPoint x="150" y="270" as="sourcePoint" />
            <mxPoint x="440" y="380" as="targetPoint" />
          </mxGeometry>
        </mxCell>
        <mxCell id="ALXvMDp6oZ-iTgO_WjpZ-29" value="User" style="shape=umlActor;verticalLabelPosition=bottom;verticalAlign=top;html=1;outlineConnect=0;" vertex="1" parent="1">
          <mxGeometry x="660" y="500" width="30" height="60" as="geometry" />
        </mxCell>
        <mxCell id="ALXvMDp6oZ-iTgO_WjpZ-32" value="" style="endArrow=none;html=1;rounded=0;entryX=1;entryY=0.5;entryDx=0;entryDy=0;" edge="1" parent="1" target="ALXvMDp6oZ-iTgO_WjpZ-7">
          <mxGeometry width="50" height="50" relative="1" as="geometry">
            <mxPoint x="650" y="510" as="sourcePoint" />
            <mxPoint x="440" y="480" as="targetPoint" />
          </mxGeometry>
        </mxCell>
        <mxCell id="ALXvMDp6oZ-iTgO_WjpZ-34" value="" style="endArrow=none;html=1;rounded=0;entryX=1;entryY=0.5;entryDx=0;entryDy=0;" edge="1" parent="1" target="ALXvMDp6oZ-iTgO_WjpZ-8">
          <mxGeometry width="50" height="50" relative="1" as="geometry">
            <mxPoint x="650" y="520" as="sourcePoint" />
            <mxPoint x="440" y="480" as="targetPoint" />
          </mxGeometry>
        </mxCell>
        <mxCell id="ALXvMDp6oZ-iTgO_WjpZ-35" value="" style="endArrow=none;html=1;rounded=0;entryX=1;entryY=0.5;entryDx=0;entryDy=0;" edge="1" parent="1" target="ALXvMDp6oZ-iTgO_WjpZ-9">
          <mxGeometry width="50" height="50" relative="1" as="geometry">
            <mxPoint x="650" y="530" as="sourcePoint" />
            <mxPoint x="440" y="480" as="targetPoint" />
          </mxGeometry>
        </mxCell>
        <mxCell id="ALXvMDp6oZ-iTgO_WjpZ-37" value="" style="endArrow=none;html=1;rounded=0;entryX=1;entryY=0.5;entryDx=0;entryDy=0;" edge="1" parent="1" target="ALXvMDp6oZ-iTgO_WjpZ-3">
          <mxGeometry width="50" height="50" relative="1" as="geometry">
            <mxPoint x="650" y="550" as="sourcePoint" />
            <mxPoint x="440" y="680" as="targetPoint" />
          </mxGeometry>
        </mxCell>
        <mxCell id="ALXvMDp6oZ-iTgO_WjpZ-38" value="" style="endArrow=none;html=1;rounded=0;entryX=1;entryY=0.5;entryDx=0;entryDy=0;" edge="1" parent="1" target="ALXvMDp6oZ-iTgO_WjpZ-5">
          <mxGeometry width="50" height="50" relative="1" as="geometry">
            <mxPoint x="650" y="560" as="sourcePoint" />
            <mxPoint x="440" y="680" as="targetPoint" />
          </mxGeometry>
        </mxCell>
        <mxCell id="ALXvMDp6oZ-iTgO_WjpZ-39" value="Therapist" style="shape=umlActor;verticalLabelPosition=bottom;verticalAlign=top;html=1;outlineConnect=0;" vertex="1" parent="1">
          <mxGeometry x="660" y="750" width="30" height="60" as="geometry" />
        </mxCell>
        <mxCell id="ALXvMDp6oZ-iTgO_WjpZ-40" value="" style="endArrow=none;html=1;rounded=0;exitX=1;exitY=0.5;exitDx=0;exitDy=0;" edge="1" parent="1" source="ALXvMDp6oZ-iTgO_WjpZ-2">
          <mxGeometry width="50" height="50" relative="1" as="geometry">
            <mxPoint x="390" y="730" as="sourcePoint" />
            <mxPoint x="650" y="780" as="targetPoint" />
          </mxGeometry>
        </mxCell>
        <mxCell id="ALXvMDp6oZ-iTgO_WjpZ-41" value="User Caretaker" style="shape=umlActor;verticalLabelPosition=bottom;verticalAlign=top;html=1;outlineConnect=0;" vertex="1" parent="1">
          <mxGeometry x="110" y="720" width="30" height="60" as="geometry" />
        </mxCell>
        <mxCell id="ALXvMDp6oZ-iTgO_WjpZ-43" value="" style="endArrow=none;html=1;rounded=0;entryX=0;entryY=0.5;entryDx=0;entryDy=0;" edge="1" parent="1" target="ALXvMDp6oZ-iTgO_WjpZ-5">
          <mxGeometry width="50" height="50" relative="1" as="geometry">
            <mxPoint x="150" y="760" as="sourcePoint" />
            <mxPoint x="440" y="680" as="targetPoint" />
          </mxGeometry>
        </mxCell>
        <mxCell id="ALXvMDp6oZ-iTgO_WjpZ-45" value="" style="endArrow=none;html=1;rounded=0;exitX=0;exitY=0.5;exitDx=0;exitDy=0;" edge="1" parent="1" source="ALXvMDp6oZ-iTgO_WjpZ-2">
          <mxGeometry width="50" height="50" relative="1" as="geometry">
            <mxPoint x="390" y="730" as="sourcePoint" />
            <mxPoint x="150" y="770" as="targetPoint" />
          </mxGeometry>
        </mxCell>
        <mxCell id="ALXvMDp6oZ-iTgO_WjpZ-46" value="Mental Health Support System" style="text;html=1;align=center;verticalAlign=middle;whiteSpace=wrap;rounded=0;" vertex="1" parent="1">
          <mxGeometry x="310" y="130" width="180" height="30" as="geometry" />
        </mxCell>
      </root>
    </mxGraphModel>
  </diagram>
</mxfile>
